<svg width="1024" height="1024" viewBox="0 0 1024 1024" fill="none" xmlns="http://www.w3.org/2000/svg">
<path d="M797.126 0H226.874C101.575 0 0 101.575 0 226.874V797.126C0 922.425 101.575 1024 226.874 1024H797.126C922.425 1024 1024 922.425 1024 797.126V226.874C1024 101.575 922.425 0 797.126 0Z" fill="#FF8C00"/>
<rect x="457" y="347" width="110" height="110" fill="black"/>
<rect x="567" y="457" width="110" height="110" fill="black"/>
<rect x="347" y="457" width="110" height="110" fill="black"/>
<path d="M567 567H677V644C677 662.225 662.225 677 644 677H567V567Z" fill="black"/>
<rect x="457" y="567" width="110" height="110" fill="black"/>
<path d="M237 490C237 471.775 251.775 457 270 457H347V567H270C251.775 567 237 552.225 237 534V490Z" fill="black"/>
<path d="M457 677H567V754C567 772.225 552.225 787 534 787H490C471.775 787 457 772.225 457 754V677Z" fill="black"/>
<path d="M347 380C347 361.775 361.775 347 380 347H457V457H347V380Z" fill="black"/>
<path d="M457 270C457 251.775 471.775 237 490 237H534C552.225 237 567 251.775 567 270V347H457V270Z" fill="black"/>
<path d="M677 457H754C772.225 457 787 471.775 787 490V534C787 552.225 772.225 567 754 567H677V457Z" fill="black"/>
</svg>
